<svg xmlns="http://www.w3.org/2000/svg" height="1200" width="1600" version="1.1" xmlns:xlink="http://www.w3.org/1999/xlink" xmlns:svgjs="http://svgjs.com/svgjs"><rect fill="#fbfbfb" width="1600" height="1200"></rect><g><path d="M1369.94 386.36C1336.59 322.66 1290.45 269.16 1234.56 234.92 1147.21 181.67 1044.35 180.03 946.83 192.37 877.51 201.18 797.61 225.86 779.68 319.13 640.74 316.62 501.28 300 362.55 313.6 297.12 319.89 232.31 345.44 197.5 416.44 113.61 586.64 245.94 760.86 343.78 871.38 514.28 1063.73 759.97 1065.62 980.38 1052.28 1135.57 1042.96 1311.11 992.99 1390.7 816.62 1451.73 681.93 1436.63 513.75 1369.94 386.36Z" fill="#ffffff" opacity="1" stroke-width="2" stroke="none"></path></g><g><path d="M1047.72 454.4C1082.08 454.4 1109.94 426.54 1109.94 392.18 1109.94 357.83 1082.08 329.97 1047.72 329.97 1013.36 329.97 985.5 357.83 985.5 392.18 985.5 426.54 1013.36 454.4 1047.72 454.4Z" fill="#fbfbfb" stroke="#000000" stroke-width="2" stroke-linecap="round" stroke-linejoin="round" opacity="1"></path><path d="M1030.45 406.91L1015.72 392.18 1030.45 377.46" stroke="#000000" stroke-width="2" stroke-linecap="round" stroke-linejoin="round" opacity="1" fill="none"></path><path d="M1064.86 377.46L1079.72 392.18 1064.86 406.91" stroke="#000000" stroke-width="2" stroke-linecap="round" stroke-linejoin="round" opacity="1" fill="none"></path><path d="M1054.45 377.46L1041.24 406.91" stroke="#000000" stroke-width="2" stroke-linecap="round" stroke-linejoin="round" opacity="1" fill="none"></path></g><g><path d="M513.48 893.18L265.88 893.51" stroke="#000000" stroke-width="2" stroke-linecap="round" stroke-linejoin="round" opacity="1" fill="none"></path></g><g><path d="M455.45 627.7C503.17 627.7 541.87 589.01 541.87 541.28 541.87 493.56 503.17 454.87 455.45 454.87 407.73 454.87 369.03 493.56 369.03 541.28 369.03 589.01 407.73 627.7 455.45 627.7Z" fill="#000000" stroke="#000000" stroke-width="2" stroke-linecap="round" stroke-linejoin="round" opacity="1"></path><path d="M455.45 892.47V544.04" stroke="#000000" stroke-width="2" stroke-linecap="round" stroke-linejoin="round" opacity="1" fill="none"></path><path d="M487.1 553.12L455.45 584.49 423.8 553.12" stroke="#000000" stroke-width="2" stroke-linecap="round" stroke-linejoin="round" opacity="1" fill="none"></path><path d="M355.55 796.14C383.2 796.14 405.64 773.71 405.64 746.05 405.64 718.39 383.2 695.96 355.55 695.96 327.89 695.96 305.46 718.39 305.46 746.05 305.46 773.71 327.89 796.14 355.55 796.14Z" fill="#000000" stroke="#000000" stroke-width="2" stroke-linecap="round" stroke-linejoin="round" opacity="1"></path><path d="M355.55 892.47V746.05" stroke="#000000" stroke-width="2" stroke-linecap="round" stroke-linejoin="round" opacity="1" fill="none"></path></g><g><path d="M183.85 893.27H473.54" stroke="#000000" stroke-width="2" stroke-linecap="round" stroke-linejoin="round" opacity="1" fill="none"></path><path d="M490.28 893.27H682.93" stroke="#000000" stroke-width="2" stroke-linecap="round" stroke-linejoin="round" opacity="1" fill="none"></path><path d="M1136.11 938.74H1286.35C1298.87 938.74 1308.94 928.64 1308.94 916.06 1308.94 903.47 1298.87 893.37 1286.35 893.37" stroke="#000000" stroke-width="2" stroke-linecap="round" stroke-linejoin="round" opacity="1" fill="none"></path><path d="M951.16 970.4H1064.84C1082.2 970.4 1096.37 956.27 1096.37 938.74" stroke="#000000" stroke-width="2" stroke-linecap="round" stroke-linejoin="round" opacity="1" fill="none"></path><path d="M867.78 970.4H926.21" stroke="#000000" stroke-width="2" stroke-linecap="round" stroke-linejoin="round" opacity="1" fill="none"></path><path d="M1120.09 938.74H1022.12" stroke="#000000" stroke-width="2" stroke-linecap="round" stroke-linejoin="round" opacity="1" fill="none"></path><path d="M789.83 938.74H576.13" stroke="#000000" stroke-width="2" stroke-linecap="round" stroke-linejoin="round" opacity="1" fill="none"></path><path d="M557.44 938.74H530.74" stroke="#000000" stroke-width="2" stroke-linecap="round" stroke-linejoin="round" opacity="1" fill="none"></path><path d="M368.08 938.74H273.6" stroke="#000000" stroke-width="2" stroke-linecap="round" stroke-linejoin="round" opacity="1" fill="none"></path><path d="M385.54 938.74H494.8C503.74 938.74 510.82 945.96 510.82 954.83 510.82 963.8 503.63 970.91 494.8 970.91H439.66" stroke="#000000" stroke-width="2" stroke-linecap="round" stroke-linejoin="round" opacity="1" fill="none"></path><path d="M480.63 1003.19H425.49C416.55 1003.19 409.47 995.97 409.47 987.1 409.47 978.13 416.65 971.02 425.49 971.02" stroke="#000000" stroke-width="2" stroke-linecap="round" stroke-linejoin="round" opacity="1" fill="none"></path><path d="M496.34 1003.19H557.44" stroke="#000000" stroke-width="2" stroke-linecap="round" stroke-linejoin="round" opacity="1" fill="none"></path><path d="M576.13 1003.19H635.69" stroke="#000000" stroke-width="2" stroke-linecap="round" stroke-linejoin="round" opacity="1" fill="none"></path><path d="M699.98 893.27H1416.15" stroke="#000000" stroke-width="2" stroke-linecap="round" stroke-linejoin="round" opacity="1" fill="none"></path></g><g><path d="M681.21 591.88L681.21 545.3C681.21 516.26 704.5 492.97 733.55 492.97L737.55 493.47 739.81 591.88 733.8 591.88 681.21 591.88Z" fill="#000000" stroke="#000000" stroke-width="2" stroke-linecap="round" stroke-linejoin="round" opacity="1"></path><path d="M919.59 591.88L919.59 545.3C919.59 516.26 896.31 492.97 867.26 492.97L863.25 492.47 862.75 591.63 867.26 591.63 919.59 591.88Z" fill="#000000" stroke="#000000" stroke-width="2" stroke-linecap="round" stroke-linejoin="round" opacity="1"></path><path d="M718.27 675.51L757.33 587.87 847.73 588.12 882.03 675.51 718.27 675.51Z" fill="#000000" stroke="#000000" stroke-width="2" stroke-linecap="round" stroke-linejoin="round" opacity="1"></path><path d="M733.8 400.07L733.8 337.47 867.01 337.47 867.01 591.88 733.8 591.88 733.8 437.13 733.8 400.07Z" fill="#fbfbfb" stroke="#000000" stroke-width="2" stroke-linecap="round" stroke-linejoin="round" opacity="1"></path><path d="M733.8 337.47L800.4 248.33 867.01 337.47 867.01 344.98 733.55 347.74 733.8 337.47Z" fill="#fbfbfb" stroke="#000000" stroke-width="2" stroke-linecap="round" stroke-linejoin="round" opacity="1"></path><path d="M775.36 489.21C789.18 503.04 811.62 503.04 825.44 489.21 839.26 475.39 839.26 452.96 825.44 439.13 811.62 425.31 789.18 425.31 775.36 439.13 761.54 452.96 761.54 475.39 775.36 489.21Z" fill="#fbfbfb" stroke="#000000" stroke-width="2" stroke-linecap="round" stroke-linejoin="round" opacity="1"></path><path d="M800.4 248.33L800.4 190.74" stroke="#000000" stroke-width="2" stroke-linecap="round" stroke-linejoin="round" opacity="1" fill="none"></path><path d="M882.03 712.57L882.03 790.19" stroke="#000000" stroke-width="2" stroke-linecap="round" stroke-linejoin="round" opacity="1" fill="none"></path><path d="M882.03 843.28L882.03 894.36" stroke="#000000" stroke-width="2" stroke-linecap="round" stroke-linejoin="round" opacity="1" fill="none"></path><path d="M776.61 712.32L776.36 823.75" stroke="#000000" stroke-width="2" stroke-linecap="round" stroke-linejoin="round" opacity="1" fill="none"></path><path d="M718.77 712.57L718.52 888.1" stroke="#000000" stroke-width="2" stroke-linecap="round" stroke-linejoin="round" opacity="1" fill="none"></path></g><g><path d="M1209.39 585.12V553.97L1186.55 561.88 1159.56 550.22 1139.49 561.88V893.07H1209.39V598.66" fill="#000000" opacity="1" stroke-width="2" stroke="none"></path><path d="M1209.39 585.12V553.97L1186.55 561.88 1159.56 550.22 1139.49 561.88V893.07H1209.39V598.66" stroke="#000000" stroke-width="2" stroke-linecap="round" stroke-linejoin="round" opacity="1" fill="none"></path><path d="M1209.39 708.79H1225.31C1241.82 708.79 1255.16 695.45 1255.16 678.94V634.05" stroke="#000000" stroke-width="2" stroke-linecap="round" stroke-linejoin="round" opacity="1" fill="none"></path><path d="M1139.49 667.67H1123.58C1107.07 667.67 1093.72 654.32 1093.72 637.81V592.93" stroke="#000000" stroke-width="2" stroke-linecap="round" stroke-linejoin="round" opacity="1" fill="none"></path><path d="M1151.56 826.74H1099.65" stroke="#000000" stroke-width="2" stroke-linecap="round" stroke-linejoin="round" opacity="1" fill="none"></path><path d="M1183.98 598.66V639.19" stroke="#000000" stroke-width="2" stroke-linecap="round" stroke-linejoin="round" opacity="1" fill="none"></path><path d="M1183.98 652.14V668.65" stroke="#000000" stroke-width="2" stroke-linecap="round" stroke-linejoin="round" opacity="1" fill="none"></path></g></svg>
